<?xml version="1.0" encoding="utf-8"?>
<!-- Generator: Adobe Illustrator 19.2.0, SVG Export Plug-In . SVG Version: 6.00 Build 0)  -->
<svg version="1.1" id="Layer_1" xmlns="http://www.w3.org/2000/svg" xmlns:xlink="http://www.w3.org/1999/xlink" x="0px" y="0px"
	 viewBox="0 0 56 56" width="56px" height="56px" style="enable-background:new 0 0 56 56;" xml:space="preserve">
<style type="text/css">
	.st0{fill:#FFFFFF;}
	.st1{fill:none;}
	.st2{fill:#0A9FDB;}
	.st3{fill:#005E93;}
	.st4{fill:#9DDAF3;}
</style>
<g>
	<g>
		<g>
			<rect x="13" y="7" class="st0" width="28" height="42"/>
		</g>
		<g>
			<rect class="st1" width="56" height="56"/>
		</g>
		<g>
			<g>
				<g>
					<path class="st2" d="M20,15v16c0,0,0,0,0,0h16c0,0,0,0,0,0V15c0,0,0,0,0,0L20,15C20,15,20,15,20,15z"/>
				</g>
			</g>
			<g>
				<path class="st0" d="M33,28C33,28,33,28,33,28c0-1.2-0.9-2-2-2.4L29,25v-1c0.8-0.4,1-1,1-1v-2c0-1.2-0.8-2-2-2l0,0h0
					c-1.1,0-2,0.9-2,2V23c0,0,0.1,0.5,1,1v1l-2,0.6c-1.1,0.4-2,1.2-2,2.4c0,0,0,0,0,0H33z"/>
			</g>
		</g>
		<path class="st3" d="M47,19c1.1,0,2-0.9,2-2V9c0-1.1-0.9-2-2-2h-3V6c0-1.1-0.9-2-2-2H12c-1.1,0-2,0.9-2,2v4H7v3h3v8H7v3h3v8H7v3h3
			v8H7v3h3v4c0,1.1,0.9,2,2,2h30c1.1,0,2-0.9,2-2v-1h3c1.1,0,2-0.9,2-2v-8c0-1.1-0.9-2-2-2h-3v-3h3c1.1,0,2-0.9,2-2v-8
			c0-1.1-0.9-2-2-2h-3v-3H47z M46,10v6h-2v-6H46z M46,40v6h-2v-6H46z M46,25v6h-2v-6H46z M41,22v12v3v12H13v-3h2v-3h-2v-8h2v-3h-2
			v-8h2v-3h-2v-8h2v-3h-2V7h28v12V22z"/>
	</g>
	<rect x="44" y="10" class="st4" width="2" height="6"/>
	<rect x="44" y="25" class="st4" width="2" height="6"/>
	<rect x="44" y="40" class="st4" width="2" height="6"/>
</g>
</svg>
